# xmcd CD database file
#
# Track frame offsets:
#	150
#	19330
#	43670
#
# Disc length: 795 seconds
#
# Revision: 0
# Processed by: cddbd v1.5.1PL0 Copyright (c) Steve Scherf et al.
# Submitted via: CDex 1.51
#
DISCID=1f031903
DTITLE=DOG HAIR DRESSERS - オレンジジュース
DYEAR=1999
DGENRE=Pop
TTITLE0=オレンジジュース
TTITLE1=ノイズギター
TTITLE2=SUN'S SON
EXTD=YEAR: 1999
EXTT0=
EXTT1=
EXTT2=
PLAYORDER=
